<svg xmlns="http://www.w3.org/2000/svg" viewBox="0 0 165 180" width="165" height="180">
  <defs>
    <linearGradient id="bodyGrad-excited" x1="0%" y1="0%" x2="0%" y2="100%">
      <stop offset="0%" style="stop-color:#5A7A8C;stop-opacity:1" />
      <stop offset="100%" style="stop-color:#3A5A6C;stop-opacity:1" />
    </linearGradient>
    <linearGradient id="headGrad-excited" x1="0%" y1="0%" x2="0%" y2="100%">
      <stop offset="0%" style="stop-color:#6A8A9C;stop-opacity:1" />
      <stop offset="100%" style="stop-color:#4A6A7C;stop-opacity:1" />
    </linearGradient>
    <filter id="glow-excited">
      <feGaussianBlur stdDeviation="2.5" result="coloredBlur"/>
      <feMerge>
        <feMergeNode in="coloredBlur"/>
        <feMergeNode in="SourceGraphic"/>
      </feMerge>
    </filter>
  </defs>
  
  <rect x="40" y="90" width="85" height="75" rx="8" fill="url(#bodyGrad-excited)"/>
  <rect x="25" y="95" width="12" height="45" rx="6" fill="#3A5A6C" transform="rotate(-20 31 95)"/>
  <rect x="128" y="95" width="12" height="45" rx="6" fill="#3A5A6C" transform="rotate(20 134 95)"/>
  <circle cx="82.5" cy="50" r="35" fill="url(#headGrad-excited)"/>
  
  <circle cx="70" cy="45" r="10" fill="#00E5FF" filter="url(#glow-excited)"/>
  <circle cx="70" cy="41" r="3" fill="#A0E0FF"/>
  <circle cx="75" cy="43" r="1.5" fill="#FFFFFF"/>
  <circle cx="95" cy="45" r="10" fill="#00E5FF" filter="url(#glow-excited)"/>
  <circle cx="95" cy="41" r="3" fill="#A0E0FF"/>
  <circle cx="100" cy="43" r="1.5" fill="#FFFFFF"/>
  
  <path d="M 68 58 Q 82.5 70 97 58" stroke="#2A4A5C" stroke-width="3" fill="none" stroke-linecap="round"/>
  <ellipse cx="82.5" cy="64" rx="10" ry="6" fill="#2A4A5C"/>
</svg>