<svg xmlns="http://www.w3.org/2000/svg" viewBox="0 0 165 180" width="165" height="180">
  <defs>
    <linearGradient id="bodyGrad-love" x1="0%" y1="0%" x2="0%" y2="100%">
      <stop offset="0%" style="stop-color:#5A7A8C;stop-opacity:1" />
      <stop offset="100%" style="stop-color:#3A5A6C;stop-opacity:1" />
    </linearGradient>
    <linearGradient id="headGrad-love" x1="0%" y1="0%" x2="0%" y2="100%">
      <stop offset="0%" style="stop-color:#6A8A9C;stop-opacity:1" />
      <stop offset="100%" style="stop-color:#4A6A7C;stop-opacity:1" />
    </linearGradient>
    <filter id="glow-love">
      <feGaussianBlur stdDeviation="2" result="coloredBlur"/>
      <feMerge>
        <feMergeNode in="coloredBlur"/>
        <feMergeNode in="SourceGraphic"/>
      </feMerge>
    </filter>
  </defs>
  
  <rect x="40" y="90" width="85" height="75" rx="8" fill="url(#bodyGrad-love)"/>
  <rect x="25" y="105" width="12" height="45" rx="6" fill="#3A5A6C"/>
  <rect x="128" y="105" width="12" height="45" rx="6" fill="#3A5A6C"/>
  <circle cx="82.5" cy="50" r="35" fill="url(#headGrad-love)"/>
  
  <path d="M 67 43 Q 65 40 67 38 Q 70 37 70 40 Q 70 37 73 38 Q 75 40 73 43 L 70 46 Z" fill="#FF69B4" filter="url(#glow-love)"/>
  <path d="M 92 43 Q 90 40 92 38 Q 95 37 95 40 Q 95 37 98 38 Q 100 40 98 43 L 95 46 Z" fill="#FF69B4" filter="url(#glow-love)"/>
  
  <path d="M 70 60 Q 82.5 68 95 60" stroke="#2A4A5C" stroke-width="2.5" fill="none" stroke-linecap="round"/>
</svg>