<svg xmlns="http://www.w3.org/2000/svg" viewBox="0 0 165 180" width="165" height="180">
  <defs>
    <linearGradient id="bodyGrad-sad" x1="0%" y1="0%" x2="0%" y2="100%">
      <stop offset="0%" style="stop-color:#4A6A7C;stop-opacity:1" />
      <stop offset="100%" style="stop-color:#2A4A5C;stop-opacity:1" />
    </linearGradient>
    <linearGradient id="headGrad-sad" x1="0%" y1="0%" x2="0%" y2="100%">
      <stop offset="0%" style="stop-color:#5A7A8C;stop-opacity:1" />
      <stop offset="100%" style="stop-color:#3A5A6C;stop-opacity:1" />
    </linearGradient>
    <filter id="glow-sad">
      <feGaussianBlur stdDeviation="2" result="coloredBlur"/>
      <feMerge>
        <feMergeNode in="coloredBlur"/>
        <feMergeNode in="SourceGraphic"/>
      </feMerge>
    </filter>
  </defs>
  
  <rect x="40" y="90" width="85" height="75" rx="8" fill="url(#bodyGrad-sad)"/>
  <rect x="25" y="110" width="12" height="45" rx="6" fill="#2A4A5C"/>
  <rect x="128" y="110" width="12" height="45" rx="6" fill="#2A4A5C"/>
  <circle cx="82.5" cy="50" r="35" fill="url(#headGrad-sad)"/>
  
  <path d="M 62 48 Q 70 52 78 48" stroke="#00B5CC" stroke-width="3" fill="none" stroke-linecap="round" filter="url(#glow-sad)"/>
  <circle cx="70" cy="50" r="2" fill="#80D5E5"/>
  <path d="M 87 48 Q 95 52 103 48" stroke="#00B5CC" stroke-width="3" fill="none" stroke-linecap="round" filter="url(#glow-sad)"/>
  <circle cx="95" cy="50" r="2" fill="#80D5E5"/>
  
  <ellipse cx="75" cy="54" rx="2" ry="4" fill="#00B5CC" opacity="0.6"/>
  <ellipse cx="100" cy="54" rx="2" ry="4" fill="#00B5CC" opacity="0.6"/>
  
  <path d="M 72 66 Q 82.5 60 93 66" stroke="#2A4A5C" stroke-width="2" fill="none" stroke-linecap="round"/>
</svg>